<?xml version="1.0" standalone="no"?>
<!DOCTYPE svg PUBLIC "-//W3C//DTD SVG 20010904//EN"
 "http://www.w3.org/TR/2001/REC-SVG-20010904/DTD/svg10.dtd">
<svg version="1.0" xmlns="http://www.w3.org/2000/svg"
 width="818.000000pt" height="818.000000pt" viewBox="0 0 818.000000 818.000000"
 preserveAspectRatio="xMidYMid meet">

<g transform="translate(0.000000,818.000000) scale(0.100000,-0.100000)"
fill="#000000" stroke="none">
<path d="M1396 8154 c-352 -55 -650 -207 -907 -463 -236 -237 -377 -497 -451
-831 l-23 -105 0 -2665 0 -2665 23 -105 c67 -306 206 -575 407 -788 244 -259
522 -416 878 -494 l102 -23 2665 0 2665 0 105 23 c306 67 575 206 788 407 259
244 416 522 494 878 l23 102 0 2665 0 2665 -23 102 c-75 338 -214 596 -451
834 -233 233 -491 374 -826 451 l-100 23 -2640 1 c-2209 2 -2654 0 -2729 -12z
m1256 -1847 c549 -111 971 -547 1054 -1089 19 -126 14 -345 -11 -463 -52 -250
-176 -477 -360 -660 -114 -114 -225 -192 -376 -264 -210 -100 -336 -121 -734
-121 -316 0 -363 -6 -457 -57 -57 -31 -138 -113 -167 -171 -44 -86 -51 -142
-51 -394 l0 -238 1025 0 1025 0 0 -435 0 -435 -1466 0 -1465 0 4 743 c4 814 2
781 67 979 145 436 526 771 982 864 64 13 163 18 438 23 329 6 359 8 407 28
228 92 337 358 235 576 -59 128 -179 222 -311 247 -33 6 -356 10 -842 10
l-789 0 0 441 0 440 858 -4 c729 -3 869 -6 934 -20z m3928 19 c0 -3 -42 -34
-92 -69 -441 -308 -824 -723 -1076 -1169 l-33 -56 78 44 c157 89 302 138 445
150 101 8 306 -9 437 -36 616 -125 1056 -582 1180 -1223 124 -643 -63 -1260
-511 -1682 -554 -521 -1413 -580 -2072 -141 -361 241 -640 654 -726 1076 -55
272 -43 691 31 1095 146 791 528 1485 1069 1943 l85 72 593 0 c325 0 592 -2
592 -4z"/>
<path d="M5730 4395 c-227 -48 -408 -192 -515 -410 -70 -143 -89 -231 -89
-410 0 -176 18 -256 88 -400 99 -206 266 -352 476 -417 97 -30 299 -32 400 -5
451 121 698 631 538 1114 -92 279 -301 471 -570 527 -93 19 -239 19 -328 1z"/>
</g>
</svg>
